<?xml version="1.0" encoding="utf-8"?>
<!-- Generator: Adobe Illustrator 26.0.0, SVG Export Plug-In . SVG Version: 6.00 Build 0)  -->
<svg version="1.1" id="Layer_1" xmlns="http://www.w3.org/2000/svg" xmlns:xlink="http://www.w3.org/1999/xlink" x="0px" y="0px"
	 width="366.5px" height="335.9px" viewBox="0 0 366.5 335.9" style="enable-background:new 0 0 366.5 335.9;" xml:space="preserve"
	>
<style type="text/css">
	.st0{fill:url(#SVGID_1_);}
	.st1{fill:url(#SVGID_00000081644868470534517210000009742922486719497896_);}
	.st2{fill:url(#SVGID_00000111878578345737884930000012187264334760269978_);}
	.st3{fill:url(#SVGID_00000016776481714803144410000011799715295012965801_);}
	.st4{fill:url(#SVGID_00000069375552485430575150000011019306346151889565_);}
	.st5{fill:url(#SVGID_00000023988290781332791800000011239332834105784243_);}
	.st6{fill:url(#SVGID_00000077306448209225497010000015107246232489188791_);}
	.st7{fill:url(#SVGID_00000093867978699348555450000008081101832522535342_);}
	.st8{fill:url(#SVGID_00000160874028282023518020000006969893593644747154_);}
	.st9{fill:url(#SVGID_00000059295880124830155910000008576139672038406574_);}
	.st10{fill:url(#SVGID_00000062153224342056678380000018415293963105840280_);}
	.st11{fill:url(#SVGID_00000120544937728207457360000010028919975571826328_);}
	.st12{fill:url(#SVGID_00000146490137227124685110000009704722195248787385_);}
	.st13{fill:url(#SVGID_00000120551743803243018400000015489028411661517697_);}
	.st14{fill:url(#SVGID_00000000203525299611611430000005797865748564865698_);}
	.st15{fill:url(#SVGID_00000100342358907484111440000008605068996683353782_);}
	.st16{fill:none;stroke:#8A6B08;stroke-width:0.9408;stroke-linecap:round;stroke-miterlimit:10;}
	.st17{fill:#FFFFFF;}
	.st18{fill:#8A6B08;}
	.st19{fill:none;stroke:#FFFFFF;stroke-width:0.8602;stroke-linecap:round;stroke-miterlimit:10;}
</style>
<linearGradient id="SVGID_1_" gradientUnits="userSpaceOnUse" x1="296.7026" y1="257.4263" x2="8.4759" y2="252.967" gradientTransform="matrix(1 0 0 -1 -16.5 310.3)">
	<stop  offset="0" style="stop-color:#C8AA48"/>
	<stop  offset="1" style="stop-color:#BD930B"/>
</linearGradient>
<path class="st0" d="M76.5,54.3L22.2,22.9c-1.4-0.8-3.3-0.3-4.1,1.1c-0.3,0.5-0.4,1-0.4,1.5v62.8c0,1.7,1.4,3,3.1,2.9
	c0.5,0,1-0.1,1.4-0.4l54.4-31.3c1.4-0.9,1.9-2.7,1-4.1C77.3,55,77,54.6,76.5,54.3z"/>
<linearGradient id="SVGID_00000111881731451250332570000004949924122580964256_" gradientUnits="userSpaceOnUse" x1="297.2957" y1="218.8007" x2="9.069" y2="214.3414" gradientTransform="matrix(1 0 0 -1 -16.5 310.3)">
	<stop  offset="0" style="stop-color:#C8AA48"/>
	<stop  offset="1" style="stop-color:#BD930B"/>
</linearGradient>
<path style="fill:url(#SVGID_00000111881731451250332570000004949924122580964256_);" d="M141.4,91.9L87,60.6c-1.4-0.8-3.2-0.4-4,1
	c-0.3,0.5-0.4,1-0.4,1.5v62.8c-0.1,1.6,1.2,3,2.8,3.1c0.6,0,1.2-0.1,1.6-0.4l54.4-31.4c1.4-0.9,1.9-2.7,1-4.1
	C142.1,92.5,141.8,92.1,141.4,91.9z"/>
<linearGradient id="SVGID_00000103230740191499521800000011259953560663285425_" gradientUnits="userSpaceOnUse" x1="297.2956" y1="218.9095" x2="9.0689" y2="214.4502" gradientTransform="matrix(1 0 0 -1 -16.5 310.3)">
	<stop  offset="0" style="stop-color:#C8AA48"/>
	<stop  offset="1" style="stop-color:#BD930B"/>
</linearGradient>
<path style="fill:url(#SVGID_00000103230740191499521800000011259953560663285425_);" d="M22.6,91.9L77,60.6
	c1.4-0.8,3.3-0.3,4.1,1.1c0.3,0.4,0.4,0.9,0.4,1.4v62.8c0,1.7-1.3,3-3,3c-0.5,0-1.1-0.1-1.5-0.4L22.6,97.1c-1.4-0.9-1.9-2.7-1-4.1
	C21.8,92.5,22.2,92.1,22.6,91.9z"/>
<linearGradient id="SVGID_00000003803864026626882320000004847336126460335542_" gradientUnits="userSpaceOnUse" x1="299.0647" y1="104.6568" x2="10.8381" y2="100.1975" gradientTransform="matrix(1 0 0 -1 -16.5 310.3)">
	<stop  offset="0" style="stop-color:#C8AA48"/>
	<stop  offset="1" style="stop-color:#BD930B"/>
</linearGradient>
<path style="fill:url(#SVGID_00000003803864026626882320000004847336126460335542_);" d="M87.8,210.3l54.4,31.4c1.4,0.8,3.2,0.4,4-1
	c0.3-0.5,0.4-1.1,0.4-1.6v-62.8c0-1.6-1.3-2.9-2.9-3c-0.5,0-1.1,0.1-1.5,0.4l-54.4,31.3c-1.4,0.9-1.9,2.7-1,4.1
	C87,209.7,87.4,210.1,87.8,210.3z"/>
<linearGradient id="SVGID_00000029737955708972983390000002242473165159530140_" gradientUnits="userSpaceOnUse" x1="297.8972" y1="180.1042" x2="9.6705" y2="175.6449" gradientTransform="matrix(1 0 0 -1 -16.5 310.3)">
	<stop  offset="0" style="stop-color:#C8AA48"/>
	<stop  offset="1" style="stop-color:#BD930B"/>
</linearGradient>
<path style="fill:url(#SVGID_00000029737955708972983390000002242473165159530140_);" d="M87,135l54.4,31.3c1.4,0.8,3.2,0.4,4-1
	c0.3-0.5,0.4-1,0.4-1.5V101c0.1-1.6-1.2-3-2.8-3.1c-0.6,0-1.2,0.1-1.6,0.4L87,129.8c-1.4,0.9-1.9,2.7-1,4.1
	C86.2,134.4,86.5,134.7,87,135z"/>
<linearGradient id="SVGID_00000157296854756479397410000004101886876141955474_" gradientUnits="userSpaceOnUse" x1="298.4716" y1="143.2952" x2="10.2449" y2="138.8265" gradientTransform="matrix(1 0 0 -1 -16.5 310.3)">
	<stop  offset="0" style="stop-color:#C8AA48"/>
	<stop  offset="1" style="stop-color:#BD930B"/>
</linearGradient>
<path style="fill:url(#SVGID_00000157296854756479397410000004101886876141955474_);" d="M22.6,172.7L77,204.1
	c1.4,0.8,3.3,0.3,4.1-1.1c0.3-0.5,0.4-1,0.4-1.5v-62.8c0-1.7-1.4-3-3.1-2.9c-0.5,0-1,0.1-1.4,0.4l-54.4,31.3c-1.4,0.9-1.9,2.7-1,4.1
	C21.8,172.1,22.2,172.4,22.6,172.7z"/>
<linearGradient id="SVGID_00000170272618087969388600000004307607564565500814_" gradientUnits="userSpaceOnUse" x1="298.4717" y1="143.1798" x2="10.2449" y2="138.7205" gradientTransform="matrix(1 0 0 -1 -16.5 310.3)">
	<stop  offset="0" style="stop-color:#C8AA48"/>
	<stop  offset="1" style="stop-color:#BD930B"/>
</linearGradient>
<path style="fill:url(#SVGID_00000170272618087969388600000004307607564565500814_);" d="M141.4,172.7L87,204.1
	c-1.4,0.8-3.2,0.4-4-1c-0.3-0.5-0.4-1.1-0.4-1.6v-62.8c0-1.6,1.3-2.9,2.9-3c0.5,0,1.1,0.1,1.5,0.4l54.4,31.3c1.4,0.9,1.9,2.7,1,4.1
	C142.1,172.1,141.8,172.4,141.4,172.7z"/>
<linearGradient id="SVGID_00000022548642896760152530000003973008918378186392_" gradientUnits="userSpaceOnUse" x1="297.8975" y1="179.9003" x2="9.6708" y2="175.441" gradientTransform="matrix(1 0 0 -1 -16.5 310.3)">
	<stop  offset="0" style="stop-color:#C8AA48"/>
	<stop  offset="1" style="stop-color:#BD930B"/>
</linearGradient>
<path style="fill:url(#SVGID_00000022548642896760152530000003973008918378186392_);" d="M205.7,129.8l-54.3-31.3
	c-1.4-0.8-3.3-0.3-4.1,1.1c-0.3,0.5-0.4,1-0.4,1.5v62.8c0,1.7,1.4,3,3.1,2.9c0.5,0,1-0.1,1.4-0.4l54.3-31.3c1.5-0.8,2-2.6,1.2-4.1
	C206.6,130.5,206.2,130.1,205.7,129.8z"/>
<linearGradient id="SVGID_00000049218549161602563100000012203531579816585124_" gradientUnits="userSpaceOnUse" x1="299.0635" y1="104.5488" x2="10.8368" y2="100.0895" gradientTransform="matrix(1 0 0 -1 -16.5 310.3)">
	<stop  offset="0" style="stop-color:#C8AA48"/>
	<stop  offset="1" style="stop-color:#BD930B"/>
</linearGradient>
<path style="fill:url(#SVGID_00000049218549161602563100000012203531579816585124_);" d="M206.5,205.3l-54.3-31.4
	c-1.4-0.8-3.3-0.3-4.1,1.1c-0.3,0.5-0.4,1-0.4,1.5v62.8c0,1.7,1.4,3,3.1,2.9c0.5,0,1-0.1,1.4-0.4l54.3-31.3c1.4-0.7,2-2.5,1.2-3.9
	C207.5,206,207.1,205.5,206.5,205.3z"/>
<linearGradient id="SVGID_00000011019292126714012470000013594496786735947941_" gradientUnits="userSpaceOnUse" x1="298.4999" y1="141.2701" x2="10.2732" y2="136.8108" gradientTransform="matrix(1 0 0 -1 -16.5 310.3)">
	<stop  offset="0" style="stop-color:#C8AA48"/>
	<stop  offset="1" style="stop-color:#BD930B"/>
</linearGradient>
<path style="fill:url(#SVGID_00000011019292126714012470000013594496786735947941_);" d="M270.9,167.4l-54.3-31.3
	c-1.4-0.8-3.3-0.3-4.1,1.1c-0.3,0.4-0.4,0.9-0.4,1.4v62.8c0,1.7,1.3,3,3,3c0.5,0,1.1-0.1,1.5-0.4l54.3-31.4c1.4-0.9,1.9-2.7,1-4.1
	C271.7,168,271.3,167.7,270.9,167.4z"/>
<linearGradient id="SVGID_00000080929563987134994710000005931052516804723381_" gradientUnits="userSpaceOnUse" x1="298.4999" y1="141.3793" x2="10.2732" y2="136.92" gradientTransform="matrix(1 0 0 -1 -16.5 310.3)">
	<stop  offset="0" style="stop-color:#C8AA48"/>
	<stop  offset="1" style="stop-color:#BD930B"/>
</linearGradient>
<path style="fill:url(#SVGID_00000080929563987134994710000005931052516804723381_);" d="M152.2,167.4l54.4-31.3
	c1.4-0.8,3.3-0.3,4.1,1.1c0.3,0.4,0.4,0.9,0.4,1.4v62.8c0,1.7-1.3,3-3,3c-0.5,0-1.1-0.1-1.5-0.4l-54.4-31.4c-1.4-0.9-1.9-2.7-1-4.1
	C151.4,168,151.7,167.7,152.2,167.4z"/>
<linearGradient id="SVGID_00000025415955638392031290000017980218295696999824_" gradientUnits="userSpaceOnUse" x1="299.0357" y1="106.4673" x2="10.8091" y2="102.008" gradientTransform="matrix(1 0 0 -1 -16.5 310.3)">
	<stop  offset="0" style="stop-color:#C8AA48"/>
	<stop  offset="1" style="stop-color:#BD930B"/>
</linearGradient>
<path style="fill:url(#SVGID_00000025415955638392031290000017980218295696999824_);" d="M76.5,205.3l-54.4-31.4
	c-1.4-0.8-3.3-0.3-4.1,1.1c-0.3,0.5-0.4,1-0.4,1.5v62.8c0,1.7,1.4,3,3.1,2.9c0.5,0,1-0.1,1.4-0.4l54.4-31.3c1.4-0.9,1.9-2.7,1-4.1
	C77.3,206,77,205.6,76.5,205.3z"/>
<linearGradient id="SVGID_00000000942625554880653090000002707922045160380040_" gradientUnits="userSpaceOnUse" x1="300.2018" y1="31.1158" x2="11.9751" y2="26.6565" gradientTransform="matrix(1 0 0 -1 -16.5 310.3)">
	<stop  offset="0" style="stop-color:#C8AA48"/>
	<stop  offset="1" style="stop-color:#BD930B"/>
</linearGradient>
<path style="fill:url(#SVGID_00000000942625554880653090000002707922045160380040_);" d="M77.4,280.7L23,249.3
	c-1.4-0.8-3.3-0.3-4.1,1.1c-0.3,0.5-0.4,1-0.4,1.5v62.8c0,1.7,1.4,3,3.1,2.9c0.5,0,1-0.1,1.4-0.4l54.4-31.3c1.4-0.9,1.9-2.7,1-4.1
	C78.2,281.3,77.8,281,77.4,280.7z"/>
<linearGradient id="SVGID_00000009554412317142749600000009708730187539297209_" gradientUnits="userSpaceOnUse" x1="299.6382" y1="67.8435" x2="11.4115" y2="63.3748" gradientTransform="matrix(1 0 0 -1 -16.5 310.3)">
	<stop  offset="0" style="stop-color:#C8AA48"/>
	<stop  offset="1" style="stop-color:#BD930B"/>
</linearGradient>
<path style="fill:url(#SVGID_00000009554412317142749600000009708730187539297209_);" d="M141.7,242.9l-54.4-31.3
	c-1.4-0.8-3.3-0.3-4.1,1.1c-0.3,0.4-0.4,0.9-0.4,1.4v62.8c0,1.7,1.3,3,3,3c0.5,0,1.1-0.1,1.5-0.4l54.4-31.4c1.4-0.9,1.9-2.7,1-4.1
	C142.5,243.5,142.2,243.1,141.7,242.9z"/>
<linearGradient id="SVGID_00000041985280773691094600000012941764751901447861_" gradientUnits="userSpaceOnUse" x1="299.6382" y1="67.9462" x2="11.4021" y2="63.4869" gradientTransform="matrix(1 0 0 -1 -16.5 310.3)">
	<stop  offset="0" style="stop-color:#C8AA48"/>
	<stop  offset="1" style="stop-color:#BD930B"/>
</linearGradient>
<path style="fill:url(#SVGID_00000041985280773691094600000012941764751901447861_);" d="M23,242.9l54.3-31.3
	c1.4-0.8,3.3-0.3,4.1,1.1c0.3,0.4,0.4,0.9,0.4,1.4v62.8c0,1.7-1.3,3-3,3c-0.5,0-1.1-0.1-1.5-0.4L23,248.1c-1.4-0.9-1.9-2.7-1-4.1
	C22.2,243.5,22.6,243.1,23,242.9z"/>
<linearGradient id="SVGID_00000068672744415411565430000008059883864287016861_" gradientUnits="userSpaceOnUse" x1="297.8686" y1="182.0792" x2="9.6419" y2="177.6199" gradientTransform="matrix(1 0 0 -1 -16.5 310.3)">
	<stop  offset="0" style="stop-color:#C8AA48"/>
	<stop  offset="1" style="stop-color:#BD930B"/>
</linearGradient>
<path style="fill:url(#SVGID_00000068672744415411565430000008059883864287016861_);" d="M77,129.7L22.7,98.3
	c-1.4-0.8-3.3-0.3-4.1,1.1c-0.3,0.5-0.4,1-0.4,1.5v62.8c0,1.7,1.4,3,3.1,2.9c0.5,0,1-0.1,1.4-0.4L77,134.9c1.4-0.9,1.9-2.7,1-4.1
	C77.8,130.3,77.4,130,77,129.7z"/>
<path class="st16" d="M284.8,167.6L12.7,10.5c-0.4-0.3-0.9-0.2-1.2,0.2c-0.1,0.2-0.2,0.3-0.1,0.5v314.2"/>
<path class="st17" d="M120.5,267.9v-0.3l14.4-8.4l6.5,2.5l6.8,2.4l21.1,6.8l6.4,2.1l5.8,1.5l-1.9-3.8l-1.8-3.3l-7.1-12.4
	c-2.1-3.7-4.5-7.2-7.1-10.6l-7.6,3v-0.3l17-9.9l0.2,0.3l-6.3,5.2c1.5,3.6,3.3,7.2,5.4,10.5l17.9,31.4l-0.3,0.2
	c-5.1-2.1-10-3.9-14.7-5.5l-28.8-9.4c-4.2-1.2-7.7-2.2-10.4-2.7c1.1,2.6,2.4,5,3.8,7.4l10.4,18.2c1.7,2.9,3.6,5.7,5.6,8.4l7.9-3.1
	v0.3l-17.3,10l-0.2-0.3l6.5-5c-0.8-2.1-1.8-4.2-2.9-6.2c-1.3-2.5-2.6-4.9-3.8-6.9l-8.1-14c-0.9-1.7-2-3.3-2.9-4.9l-3.1-4.7l-5.5-0.6
	L120.5,267.9z M129.5,263.8l56.8,18.4l-1.5-2.7l-52.9-17.1L129.5,263.8z"/>
<path class="st18" d="M231.4,259.4L209.7,272l-0.2-0.3l6.4-5.1c-1.1-2.6-2.5-5.6-4.3-9.1c-1.8-3.5-3.6-6.8-5.5-10l-2.7-4.9
	c-3-5.4-6.4-10.5-10.1-15.4l-7.7,3.1l-0.2-0.3l21.6-12.5l0.2,0.3l-6.6,5.2c0.8,2,1.7,3.7,2.4,5.3c0.8,1.6,1.8,3.4,2.9,5.6
	c1.1,2.2,2.3,4.2,3.3,6.1l3.7,6.3c0.7,1.2,1.9,3.1,3.5,5.6s3,4.8,4.2,6.5s2.1,3.1,2.7,4l7.7-3.1L231.4,259.4z M194.9,226l23,39.7
	l2-1.1l-23-39.7L194.9,226z"/>
<path class="st17" d="M219.7,210.6l-0.2-0.3L234,202l6.4,2.6l6.8,2.4l21.1,6.9l6.4,2l5.8,1.6c-0.7-1.4-1.2-2.6-1.9-3.9l-1.8-3.3
	l-7.1-12.3c-2.1-3.7-4.5-7.3-7.1-10.6l-7.5,2.9l-0.2-0.3l17-9.8l0.2,0.3l-6.3,5.1c1.5,3.7,3.3,7.2,5.4,10.6l18.1,31.3l-0.3,0.2
	c-5-2-9.9-3.9-14.7-5.4l-28.8-9.4c-4.2-1.3-7.7-2.3-10.4-2.8c1.1,2.6,2.4,5.1,3.8,7.5l10.5,18.2c1.7,2.9,3.5,5.6,5.6,8.3l7.9-3.1
	v0.3l-17.4,10.1V251l6.4-5.1c-0.8-2.1-1.8-4.1-2.9-6.1c-1.3-2.6-2.5-4.9-3.8-7l-8.1-14c-0.9-1.6-1.9-3.3-2.9-4.9l-3.1-4.6l-5.5-0.7
	L219.7,210.6z M228.7,206.5l56.8,18.4l-1.5-2.6l-52.9-17.2L228.7,206.5z"/>
<path class="st18" d="M308.4,158.4l29.5,22.5c3.9,3,8,5.7,12.2,8.2l5.3-1.7l0.2,0.3l-20.2,11.7l-0.2-0.3l7.2-5.6
	c-1.6-1.9-3.3-3.6-5.2-5.2c-1.8-1.6-3.7-3.1-5.8-4.3l-18,10.3c0.3,2.4,0.7,4.3,0.8,5.8s0.6,3,0.9,4.6c0.2,1.3,0.6,2.6,1,3.9l8.1-3.3
	l0.2,0.3l-16,9.2l-0.2-0.3l4.7-4c0-3.1-0.3-6.3-0.8-9.4l-6.2-41.4L308.4,158.4z M310,168.3c0.1,1.2,0.3,3.1,0.6,5.6
	c0.3,2.4,0.6,4.7,0.8,6.9c0.3,2.2,0.6,4.3,0.9,6.6c0.4,2.3,0.7,4,0.8,4.7c1.4-0.6,2.8-1.2,4.1-2l4.3-2.4c3.3-2,5.9-3.7,8-5.2
	c-2-1.7-5-4-9-7.1C317.2,172.9,313.7,170.5,310,168.3z M309.1,165.5l35.5,27l1.9-1l-37.7-28.9L309.1,165.5z"/>
<polygon class="st18" points="117.3,295.5 98.1,295.5 107.7,312.1 "/>
<line class="st19" x1="105.7" y1="316.1" x2="93.7" y2="295.1"/>
</svg>
