<?xml version="1.0" encoding="utf-8"?>
<!-- Generator: Adobe Illustrator 26.0.0, SVG Export Plug-In . SVG Version: 6.00 Build 0)  -->
<svg version="1.1" id="Layer_1" xmlns="http://www.w3.org/2000/svg" xmlns:xlink="http://www.w3.org/1999/xlink" x="0px" y="0px"
	 width="284px" height="344px" viewBox="0 0 284 344" style="enable-background:new 0 0 284 344;" xml:space="preserve">
<style type="text/css">
	.st0{fill:url(#SVGID_1_);}
	.st1{fill:url(#SVGID_00000134217488164324238540000009355728468048101505_);}
	.st2{fill:url(#SVGID_00000144331239385061797800000008603549746203656892_);}
	.st3{fill:url(#SVGID_00000073709431916338032650000016556524736526893222_);}
	.st4{fill:url(#SVGID_00000103959287984560937620000007409695702640414111_);}
	.st5{fill:url(#SVGID_00000061457188583984599160000010201146105728098990_);}
	.st6{fill:url(#SVGID_00000174603894605298245320000013203338111935543178_);}
	.st7{fill:url(#SVGID_00000178186938946473009490000004123474658628049552_);}
	.st8{fill:url(#SVGID_00000125604849561700609040000011207308852484029353_);}
	.st9{fill:none;stroke:#048ABF;stroke-width:2.9396;stroke-linecap:round;stroke-miterlimit:10;}
</style>
<linearGradient id="SVGID_1_" gradientUnits="userSpaceOnUse" x1="290.9963" y1="143.907" x2="125.7361" y2="143.907" gradientTransform="matrix(1 0 0 -1 -58 316)">
	<stop  offset="0" style="stop-color:#0477BF"/>
	<stop  offset="1" style="stop-color:#6AB9D9"/>
</linearGradient>
<path class="st0" d="M93.4,151v4.4c0,1.3-1.1,2.4-2.4,2.4h0h-7.7c-1.3,0-2.3,1-2.3,2.3c0,0,0,0.1,0,0.1v33c0,1.3-1.1,2.4-2.4,2.4h0
	h-6.7c-1.3,0-2.3-1.1-2.3-2.4v-33c0-1.3-1.1-2.4-2.4-2.4c0,0,0,0,0,0h-7.7c-1.3,0-2.3-1-2.3-2.3c0,0,0-0.1,0-0.1V151
	c0-1.3,1-2.4,2.3-2.4H91C92.3,148.6,93.4,149.7,93.4,151C93.4,151,93.4,151,93.4,151z"/>
<linearGradient id="SVGID_00000056424095842059378180000010464667694937073075_" gradientUnits="userSpaceOnUse" x1="290.9963" y1="143.907" x2="125.7361" y2="143.907" gradientTransform="matrix(1 0 0 -1 -58 316)">
	<stop  offset="0" style="stop-color:#0477BF"/>
	<stop  offset="1" style="stop-color:#6AB9D9"/>
</linearGradient>
<path style="fill:url(#SVGID_00000056424095842059378180000010464667694937073075_);" d="M110.6,160.2v4.7c0,1.3,1,2.3,2.3,2.3h10.6
	c1.3,0,2.3,1.1,2.3,2.4v4.1c0,1.3-1,2.3-2.3,2.3h-10.6c-1.3,0-2.3,1.1-2.3,2.4v5.6c0,1.3,1,2.3,2.3,2.3h12.6c1.3,0,2.3,1.1,2.3,2.4
	v4.4c0,1.3-1,2.4-2.3,2.4h-24.1c-1.3,0-2.4-1.1-2.4-2.4v0V151c0-1.3,1.1-2.4,2.4-2.4h0h24.1c1.3,0,2.3,1.1,2.3,2.4v4.4
	c0.1,1.3-0.9,2.4-2.2,2.4c0,0-0.1,0-0.1,0h-12.6C111.6,157.8,110.6,158.8,110.6,160.2C110.6,160.1,110.6,160.2,110.6,160.2z"/>
<linearGradient id="SVGID_00000130647364635992907300000007607555123013559480_" gradientUnits="userSpaceOnUse" x1="290.9963" y1="143.9535" x2="125.7361" y2="143.9535" gradientTransform="matrix(1 0 0 -1 -58 316)">
	<stop  offset="0" style="stop-color:#0477BF"/>
	<stop  offset="1" style="stop-color:#6AB9D9"/>
</linearGradient>
<path style="fill:url(#SVGID_00000130647364635992907300000007607555123013559480_);" d="M166.1,163.4c-0.8-1.4-2-2.5-3.3-3.3
	c-1.8-1-3.8-1.5-5.9-1.5c-3.3-0.1-6.4,1.2-8.6,3.7c-2.2,2.4-3.3,5.7-3.3,9.8c0,4.2,1.1,7.4,3.3,9.9c2.1,2.5,5.3,3.9,8.6,3.7
	c2.1,0,4.1-0.5,5.9-1.6c1.4-0.8,2.5-2,3.3-3.3c0.5-0.7,1.2-1.1,2-1.1h4c2.3-4.7,2.4-10.2,0.3-15h-4.3
	C167.3,164.5,166.5,164.1,166.1,163.4z"/>
<linearGradient id="SVGID_00000065067022651230202560000006156942290652186004_" gradientUnits="userSpaceOnUse" x1="290.9963" y1="144" x2="125.7361" y2="144" gradientTransform="matrix(1 0 0 -1 -58 316)">
	<stop  offset="0" style="stop-color:#0477BF"/>
	<stop  offset="1" style="stop-color:#6AB9D9"/>
</linearGradient>
<path style="fill:url(#SVGID_00000065067022651230202560000006156942290652186004_);" d="M175.9,179.5h-3.8
	c-4.3,8.8-14.9,12.4-23.6,8.1s-12.4-14.9-8.1-23.6s14.9-12.4,23.6-8.1c3.7,1.8,6.7,4.9,8.4,8.7h3.5c1.3,0.1,2.4-0.9,2.4-2.2
	c0-0.4-0.1-0.7-0.2-1c-1.4-3.5-3.8-6.6-6.9-8.8c-3.9-3-8.7-4.4-14.3-4.4c-4.2-0.1-8.4,1-12.2,3c-3.6,2-6.5,5-8.4,8.6
	c-2.1,3.8-3.1,8-3.1,12.4c-0.1,4.3,1,8.6,3.1,12.5c1.9,3.5,4.8,6.5,8.4,8.5c3.7,2,7.9,3,12.2,3c5.6,0,10.4-1.4,14.3-4.4
	c3.1-2.2,5.5-5.2,6.9-8.7c0.5-1.2,0-2.5-1.2-3.1C176.6,179.6,176.3,179.5,175.9,179.5z"/>
<linearGradient id="SVGID_00000109022380928952185440000015889480070537464481_" gradientUnits="userSpaceOnUse" x1="290.9963" y1="143.907" x2="125.7361" y2="143.907" gradientTransform="matrix(1 0 0 -1 -58 316)">
	<stop  offset="0" style="stop-color:#0477BF"/>
	<stop  offset="1" style="stop-color:#6AB9D9"/>
</linearGradient>
<path style="fill:url(#SVGID_00000109022380928952185440000015889480070537464481_);" d="M227,151v42.2c0,1.3-1,2.4-2.3,2.4h-6.7
	c-1.3,0-2.4-1.1-2.4-2.4v0v-14.6c0-1.3-1-2.3-2.3-2.3h-13.1c-1.3,0-2.3,1-2.3,2.3v14.6c0,1.3-1.1,2.4-2.4,2.4l0,0h-6.7
	c-1.3,0-2.3-1.1-2.3-2.4V151c0-1.3,1-2.4,2.3-2.4h6.7c1.3,0,2.4,1.1,2.4,2.4v0v13.7c0,1.3,1,2.3,2.3,2.3h13.1c1.3,0,2.3-1,2.3-2.3
	V151c0-1.3,1.1-2.4,2.4-2.4l0,0h6.7C225.9,148.6,227,149.7,227,151z"/>
<linearGradient id="SVGID_00000026876726836345968990000015383579175252165811_" gradientUnits="userSpaceOnUse" x1="5.473" y1="212.2042" x2="282.58" y2="212.2042" gradientTransform="matrix(1 0 0 -1 0 344)">
	<stop  offset="0" style="stop-color:#0477BF"/>
	<stop  offset="1" style="stop-color:#6AB9D9"/>
</linearGradient>
<polygon style="fill:url(#SVGID_00000026876726836345968990000015383579175252165811_);" points="142.9,31.6 257.3,133.9 
	257.3,250.4 274,240.8 274,88.3 142,12.1 10,88.3 10,240.8 28.6,251.5 28.6,133.9 "/>
<linearGradient id="SVGID_00000080169203741692268380000013871499471698257576_" gradientUnits="userSpaceOnUse" x1="5.473" y1="52.8747" x2="282.58" y2="52.8747" gradientTransform="matrix(1 0 0 -1 0 344)">
	<stop  offset="0" style="stop-color:#0477BF"/>
	<stop  offset="1" style="stop-color:#6AB9D9"/>
</linearGradient>
<polygon style="fill:url(#SVGID_00000080169203741692268380000013871499471698257576_);" points="142.9,331.9 257.3,265.9 
	257.3,250.4 142,316.9 28.6,251.5 28.6,265.9 "/>
<linearGradient id="SVGID_00000092445764841985113510000005311497067604617390_" gradientUnits="userSpaceOnUse" x1="42.8141" y1="68.4451" x2="244.6625" y2="68.4451" gradientTransform="matrix(1 0 0 -1 0 344)">
	<stop  offset="0" style="stop-color:#0477BF"/>
	<stop  offset="1" style="stop-color:#6AB9D9"/>
</linearGradient>
<polygon style="fill:url(#SVGID_00000092445764841985113510000005311497067604617390_);" points="142.9,305.2 226.2,257.1 
	226.2,245.9 142.3,294.4 59.6,246.7 59.6,257.1 "/>
<linearGradient id="SVGID_00000136398929161294638350000009325541850044169379_" gradientUnits="userSpaceOnUse" x1="74.2152" y1="82.4817" x2="212.7687" y2="82.4817" gradientTransform="matrix(1 0 0 -1 0 344)">
	<stop  offset="0" style="stop-color:#0477BF"/>
	<stop  offset="1" style="stop-color:#6AB9D9"/>
</linearGradient>
<polygon style="fill:url(#SVGID_00000136398929161294638350000009325541850044169379_);" points="142.9,281.9 200.1,248.9 
	200.1,241.2 142.5,274.4 85.8,241.7 85.8,248.9 "/>
<line class="st9" x1="122.9" y1="225.5" x2="160.1" y2="225.5"/>
<line class="st9" x1="142" y1="112" x2="142" y2="74.9"/>
</svg>
