<?xml version="1.0" encoding="utf-8"?>
<!-- Generator: Adobe Illustrator 26.0.0, SVG Export Plug-In . SVG Version: 6.00 Build 0)  -->
<svg version="1.1" id="Layer_1" xmlns="http://www.w3.org/2000/svg" xmlns:xlink="http://www.w3.org/1999/xlink" x="0px" y="0px"
	 width="268.4px" height="258.9px" viewBox="0 0 268.4 258.9" style="enable-background:new 0 0 268.4 258.9;" xml:space="preserve"
	>
<style type="text/css">
	.st0{fill:#1F92BF;}
	.st1{fill:#F2E7DC;stroke:#F2E7DC;stroke-width:1.2513;stroke-linecap:round;stroke-miterlimit:10;}
	.st2{fill:#F2E7DC;}
	.st3{font-family:'SquaredDisplay';}
	.st4{font-size:50.7759px;}
	.st5{letter-spacing:5;}
	.st6{fill:none;stroke:#1F92BF;stroke-width:0.2395;stroke-miterlimit:10;}
</style>
<path class="st0" d="M170.4,112.8c-21.5-20.6-42.3-41.8-60.7-65.1c-6.5-9-28.5-36.3-4.7-37.1c21.5,0,54.3,16.3,62.2,37.2
	c3.9,9.6,1.2,20.3-4.3,28.6c2.4-4.3,4-9,4.7-13.9c3.7-27.7-39.3-48.2-62.4-48.3c-4.5,0.3-8.3,1-7,6.4c2.6,9.2,8.9,17.1,14.4,24.8
	C130.4,69,150.6,90.7,170.4,112.8L170.4,112.8z"/>
<path class="st0" d="M96,88c21.5,20.5,42.3,41.7,60.7,65.1c6.5,8.9,28.5,36.2,4.7,37c-21.5,0-54.3-16.3-62.2-37.1
	c-3.9-9.7-1.2-20.4,4.3-28.7c-2.4,4.3-4,9-4.7,13.9c-3.7,27.7,39.3,48.2,62.4,48.3c4.5-0.3,8.3-1,7-6.4c-2.6-9.2-8.9-17.1-14.4-24.8
	C136,131.7,115.8,110,96,88L96,88z"/>
<path class="st0" d="M165.8,6.1c-3.5,7.6-1.9,17.2,4.4,22.9c2,1.9,4.4,3.4,7.1,4.4c-8.1-2.7-14.4-10.6-14.2-19.4
	c0.1-2.9,0.7-5.7,1.7-8.3c0.2-0.3,0.5-0.4,0.8-0.3c0.2,0,0.4,0.2,0.3,0.4C165.9,6,165.8,6,165.8,6.1z"/>
<path class="st0" d="M100.6,194.6c3.5-7.6,1.9-17.2-4.4-22.9c-2-1.9-4.4-3.4-7.1-4.4c8.1,2.7,14.4,10.6,14.2,19.4
	c-0.1,2.9-0.7,5.7-1.7,8.3c-0.2,0.3-0.5,0.4-0.8,0.3c-0.2,0-0.4-0.2-0.3-0.4C100.5,194.8,100.6,194.7,100.6,194.6z"/>
<path class="st0" d="M120.8,137.5c20.5-21.5,41.7-42.3,65.1-60.7c9-6.5,36.3-28.5,37.1-4.7c0,21.5-16.3,54.3-37.2,62.2
	c-9.6,3.9-20.3,1.2-28.6-4.3c4.3,2.4,9,4,13.9,4.7c27.7,3.7,48.2-39.3,48.3-62.4c-0.3-4.5-1-8.3-6.4-7c-9.2,2.6-17.1,8.9-24.8,14.4
	C164.5,97.6,142.9,117.8,120.8,137.5L120.8,137.5z"/>
<path class="st0" d="M145.6,63.2c-20.5,21.5-41.7,42.3-65.1,60.7c-9,6.5-36.3,28.5-37.1,4.7c0-21.5,16.3-54.3,37.2-62.2
	c9.6-3.9,20.3-1.2,28.6,4.3c-4.3-2.4-9-4-13.9-4.7c-27.7-3.7-48.2,39.3-48.3,62.5c0.3,4.4,1,8.2,6.4,6.9c9.2-2.6,17.1-8.9,24.8-14.4
	C101.9,103.2,123.5,82.9,145.6,63.2z"/>
<path class="st0" d="M227.5,132.9c-7.6-3.5-17.2-1.9-22.9,4.4c-1.9,2-3.4,4.4-4.4,7.1c2.7-8.1,10.6-14.4,19.4-14.2
	c2.9,0.1,5.7,0.7,8.3,1.7c0.3,0.2,0.4,0.5,0.3,0.8c0,0.2-0.2,0.4-0.4,0.3C227.6,133.1,227.5,133,227.5,132.9z"/>
<path class="st0" d="M38.9,67.8c7.6,3.5,17.2,1.9,22.9-4.4c1.9-2,3.4-4.4,4.4-7.1c-2.7,8.1-10.6,14.4-19.4,14.2
	c-2.9-0.1-5.7-0.6-8.3-1.7c-0.3-0.2-0.4-0.5-0.3-0.8C38.4,67.8,38.7,67.6,38.9,67.8L38.9,67.8z"/>
<rect x="128.7" y="95.9" transform="matrix(0.7071 -0.7071 0.7071 0.7071 -32.0079 123.6283)" class="st1" width="9" height="9"/>
<text transform="matrix(1 0 0 1 8.8501 243.2139)" class="st2 st3 st4 st5">LIGHTNESS</text>
<text transform="matrix(1 0 0 1 8.8501 243.2139)" class="st6 st3 st4 st5">LIGHTNESS</text>
</svg>
