<?xml version="1.0" encoding="utf-8"?>
<!-- Generator: Adobe Illustrator 26.0.0, SVG Export Plug-In . SVG Version: 6.00 Build 0)  -->
<svg version="1.1" id="Layer_1" xmlns="http://www.w3.org/2000/svg" xmlns:xlink="http://www.w3.org/1999/xlink" x="0px" y="0px"
	 width="380.1px" height="364.2px" viewBox="0 0 380.1 364.2" style="enable-background:new 0 0 380.1 364.2;" xml:space="preserve"
	>
<style type="text/css">
	.st0{fill:#F7931E;}
	.st1{fill:none;stroke:#F7931E;stroke-width:27.4319;stroke-miterlimit:10;}
	.st2{fill:none;stroke:#F7931E;stroke-width:27.4319;stroke-linecap:round;stroke-miterlimit:10;}
	.st3{fill:#F2F2F2;}
</style>
<circle class="st0" cx="142.3" cy="182.1" r="7.3"/>
<circle class="st0" cx="270.8" cy="216.7" r="7.3"/>
<image style="overflow:visible;opacity:0.6;enable-background:new    ;" width="164" height="164" xlink:href="98D56C90.png"  transform="matrix(0.9459 0 0 0.9459 72.8068 109.2687)">
</image>
<path class="st1" d="M145.4,231.2H105c-4.8,0-8.7-3.9-8.7-8.7V133h49.1c27.1,0,49.1,22,49.1,49.1l0,0
	C194.5,209.2,172.5,231.2,145.4,231.2L145.4,231.2z"/>
<image style="overflow:visible;opacity:0.6;enable-background:new    ;" width="184" height="221" xlink:href="98D56C91.png"  transform="matrix(0.9459 0 0 0.9459 195.7776 92.242)">
</image>
<polyline class="st2" points="219.8,231.2 268.9,133 268.9,133 336.3,267.9 "/>
<path class="st3" d="M309.9,271.8c-53.5,62.1-147.1,69-209.2,15.6c-62.1-53.5-69-147.1-15.6-209.2s147.1-69,209.2-15.6
	c44.4,38.3,62.1,99.1,45.2,155.3l7.6,15.5c28.3-90.8-22.4-187.3-113.2-215.5S46.5,40.3,18.3,131.1s22.4,187.3,113.2,215.5
	c68.2,21.2,142.4-1.8,186.5-58L309.9,271.8z"/>
</svg>
