<?xml version="1.0" encoding="utf-8"?>
<!-- Generator: Adobe Illustrator 26.0.0, SVG Export Plug-In . SVG Version: 6.00 Build 0)  -->
<svg version="1.1" id="Layer_1" xmlns="http://www.w3.org/2000/svg" xmlns:xlink="http://www.w3.org/1999/xlink" x="0px" y="0px"
	 width="335.5px" height="332.7px" viewBox="0 0 335.5 332.7" style="enable-background:new 0 0 335.5 332.7;" xml:space="preserve"
	>
<style type="text/css">
	.st0{opacity:0.33;fill:none;stroke:#F9F871;stroke-width:9.5157;stroke-miterlimit:10;enable-background:new    ;}
	.st1{fill:#F9F871;}
</style>
<path class="st0" d="M193.4,26.7c-8.5-11.7-23.6-16.6-37.4-12.1L36,53.6c-13.7,4.5-23,17.3-23,31.8v126.2c0,14.5,9.3,27.3,23,31.8"
	/>
<path class="st1" d="M321.1,153.2l-6.9-9.5L293.2,177l18.7,28.1l9.2-12.7C329.5,180.8,329.4,164.9,321.1,153.2z"/>
<path class="st1" d="M131.3,137.2c-10.8,0-19.4,3.5-25.8,10.5s-9.6,16.5-9.6,28.4s3.2,21.2,9.6,28.3s15,10.6,25.8,10.6
	s19.2-3.5,25.6-10.7c6.4-7.1,9.6-16.5,9.6-28.2c0-11.7-3.2-21.2-9.6-28.3C150.5,140.7,141.9,137.2,131.3,137.2z"/>
<path class="st1" d="M272.3,202.3l-24,40.9h-36.9l42.8-67.9l-43.8-65.7h37.9l26.8,40.3l19.4-33.2l-59.7-82.2
	c-8.5-11.7-23.5-16.6-37.3-12.2L58.1,67.7C44.3,72.2,35,85,35,99.4v146.7c0,14.5,9.4,27.3,23.1,31.7l139.5,45.4
	c13.8,4.4,28.8-0.5,37.3-12.2l57.3-78.9L272.3,202.3z M190.5,211.3c-5.9,10.2-14.4,18.7-24.7,24.5c-21.5,11.7-47.5,11.7-69,0
	c-10.4-5.7-19-14.2-24.9-24.5c-6.2-10.5-9.2-22.3-9.2-35.3s3-24.8,9.2-35.2c6-10.2,14.6-18.6,24.9-24.4c21.5-11.7,47.5-11.7,69.1,0
	c10.3,5.7,18.9,14.1,24.7,24.4c6,10.4,9,22.2,9,35.2C199.8,188.4,196.6,200.6,190.5,211.3L190.5,211.3z"/>
</svg>
