<?xml version="1.0" encoding="utf-8"?>
<!-- Generator: Adobe Illustrator 26.0.0, SVG Export Plug-In . SVG Version: 6.00 Build 0)  -->
<svg version="1.1" id="Layer_1" xmlns="http://www.w3.org/2000/svg" xmlns:xlink="http://www.w3.org/1999/xlink" x="0px" y="0px"
	 width="176.1px" height="160.1px" viewBox="0 0 176.1 160.1" style="enable-background:new 0 0 176.1 160.1;" xml:space="preserve"
	>
<style type="text/css">
	.st0{fill:#191919;stroke:#F50057;stroke-width:0.71;stroke-miterlimit:10;}
</style>
<path class="st0" d="M122.4,23.5c-2.4,1.4-15,29.7-21,40.3c-18.7,33.1-28,51.6-35.7,51.7c-9.6,0.2-10.6-16.3-29.2-41.4
	c-12-16.2-22.4-21.5-31.3-24.8c-0.1,0-0.2,0.1-0.1,0.2c10.8,10.4,21.2,14.4,31.2,42.1c12.8,35.4,14.3,62.7,23.3,63.5
	c5.4,0.5,11.4-5.2,30.3-44.2C106.7,75.7,125.8,21.4,122.4,23.5z M71.3,130.5c-6.8,11.2-8.8,12.7-10.4,12.4s-2.4-8.8-5.2-20
	c-2.3-8.8-5.4-10.2-8.3-13.8c3.9,1.8,7,4.8,8.9,8.6c4.3,8.5,4.7,13.3,7.7,13.4c2.9,0.2,5.7-5.1,12.3-14.5c2.1-3,7.5-10.5,8.1-10.9
	S77.5,120.4,71.3,130.5z"/>
<path class="st0" d="M138.8,6.9c-7.4,11.4-27.5,45.7-18,84.3c10.2,41.3,49,65.4,50.2,64.4c1.1-1-20.8-17.5-33.1-46.4
	C122.3,72.3,129.8,33.9,138.8,6.9z"/>
</svg>
